<?xml version="1.0" encoding="utf-8"?>
<!-- Generator: Adobe Illustrator 16.0.0, SVG Export Plug-In . SVG Version: 6.00 Build 0)  -->
<!DOCTYPE svg PUBLIC "-//W3C//DTD SVG 1.1//EN" "http://www.w3.org/Graphics/SVG/1.1/DTD/svg11.dtd">
<svg version="1.1" id="图层_1" xmlns="http://www.w3.org/2000/svg" xmlns:xlink="http://www.w3.org/1999/xlink" x="0px" y="0px"
	 width="50px" height="50px" viewBox="0 0 50 50" enable-background="new 0 0 50 50" xml:space="preserve">
<circle fill="#B3DE7B" cx="25" cy="25" r="20"/>
<path fill="#FFFFFF" d="M24.986,41.313c-6.932-0.005-13.105-4.382-15.402-10.921c-0.195-0.644,0.152-1.326,0.787-1.548
	c0.634-0.223,1.331,0.095,1.58,0.719c1.945,5.532,7.17,9.235,13.035,9.239c5.872-0.002,11.102-3.714,13.039-9.257
	c0.149-0.423,0.511-0.735,0.952-0.818c0.44-0.084,0.892,0.074,1.186,0.414c0.292,0.34,0.381,0.811,0.233,1.232
	C38.104,36.923,31.925,41.31,24.986,41.313L24.986,41.313z M39.236,21.351c-0.536,0-1.013-0.34-1.188-0.847
	c-1.915-5.578-7.161-9.324-13.059-9.326c-5.898-0.002-11.146,3.742-13.064,9.319c-0.246,0.625-0.939,0.945-1.575,0.728
	c-0.635-0.218-0.986-0.896-0.797-1.541c2.265-6.592,8.465-11.017,15.436-11.016c6.97,0.001,13.169,4.429,15.432,11.021
	c0.133,0.383,0.072,0.807-0.164,1.137C40.021,21.155,39.642,21.351,39.236,21.351L39.236,21.351z M39.236,21.351"/>
<rect x="9.483" y="8.647" fill="none" width="31.033" height="32.705"/>
<path fill="#FFFFFF" d="M10.738,13.813c-0.693,0-1.255,0.563-1.255,1.256v5.021c0,0.693,0.562,1.255,1.255,1.255
	s1.255-0.562,1.255-1.255v-5.021c0-0.333-0.132-0.652-0.367-0.888S11.071,13.813,10.738,13.813L10.738,13.813z"/>
<path fill="#FFFFFF" d="M39.236,28.682c-0.333,0-0.652,0.133-0.889,0.367c-0.234,0.236-0.367,0.555-0.367,0.889v5.021
	c0.001,0.693,0.563,1.255,1.256,1.255c0.692,0,1.255-0.562,1.256-1.255v-5.021C40.492,29.244,39.929,28.682,39.236,28.682
	L39.236,28.682z"/>
<path fill="#999999" d="M39.236,28.682"/>
<g>
	<path fill="#FFFFFF" d="M22.396,24.17v-0.892c0.594-0.071,1.094-0.17,1.499-0.297c0.404-0.127,0.865-0.33,1.38-0.605h0.784v8.615
		c0,0.301,0.043,0.526,0.129,0.677s0.206,0.26,0.36,0.328c0.153,0.068,0.435,0.102,0.843,0.102h0.505V33h-5.5v-0.902h0.44
		c0.479,0,0.802-0.043,0.967-0.129c0.165-0.086,0.281-0.207,0.349-0.365c0.068-0.157,0.102-0.526,0.102-1.106V24.17H22.396z
		 M25.125,17.531c0.344,0,0.638,0.12,0.881,0.36c0.243,0.24,0.365,0.532,0.365,0.875s-0.122,0.638-0.365,0.881
		c-0.243,0.244-0.537,0.365-0.881,0.365s-0.638-0.122-0.881-0.365c-0.244-0.243-0.365-0.537-0.365-0.881s0.122-0.635,0.365-0.875
		C24.487,17.651,24.781,17.531,25.125,17.531z"/>
</g>
</svg>
