<?xml version="1.0" encoding="utf-8"?>
<!-- Generator: Adobe Illustrator 22.1.0, SVG Export Plug-In . SVG Version: 6.00 Build 0)  -->
<svg version="1.1" id="图层_1" xmlns="http://www.w3.org/2000/svg" xmlns:xlink="http://www.w3.org/1999/xlink" x="0px" y="0px"
	 viewBox="0 0 50 50" style="enable-background:new 0 0 50 50;" xml:space="preserve">
<style type="text/css">
	.st0{fill:none;}
	.st1{fill:#999999;}
	.st2{fill:#F65353;}
	.st3{fill:#FFFFFF;}
</style>
<g>
	<rect x="9.5" y="8.6" class="st0" width="31" height="32.7"/>
	<path class="st1" d="M39.2,28.7"/>
	<path class="st2" d="M45,40c0,2.8-2.2,5-5,5H10c-2.8,0-5-2.2-5-5V10c0-2.8,2.2-5,5-5h30c2.8,0,5,2.2,5,5V40z"/>
	<g>
		<g>
			<path class="st3" d="M27.4,22.5l0.6-1.8l1.4,0.4l-0.9-4.4l-3.4,3l1.4,0.5l-0.7,2.2c-0.2,0-0.5,0-0.7,0c-8.9,0-16.1,4.8-16.1,10.7
				h2.5c0-4.6,6.1-8.4,13.5-8.4l-2.8,8.5l1.7-0.1l2.8-8.4c6.7,0.5,11.9,4.1,11.9,8.4h2.5C41.1,27.8,35.1,23.3,27.4,22.5L27.4,22.5z"
				/>
		</g>
	</g>
</g>
</svg>
