<?xml version="1.0" encoding="utf-8"?>
<!-- Generator: Adobe Illustrator 16.0.0, SVG Export Plug-In . SVG Version: 6.00 Build 0)  -->
<!DOCTYPE svg PUBLIC "-//W3C//DTD SVG 1.1//EN" "http://www.w3.org/Graphics/SVG/1.1/DTD/svg11.dtd">
<svg version="1.1" id="图层_1" xmlns="http://www.w3.org/2000/svg" xmlns:xlink="http://www.w3.org/1999/xlink" x="0px" y="0px"
	 width="50px" height="50px" viewBox="0 0 50 50" enable-background="new 0 0 50 50" xml:space="preserve">
<circle fill="#B3DE7B" cx="25" cy="25" r="20"/>
<rect x="9.483" y="8.647" fill="none" width="31.033" height="32.705"/>
<path fill="#999999" d="M39.236,28.682"/>
<g>
	<path fill="#FFFFFF" d="M24.875,17.621h-5.238v16.066h-2.355V17.621h-5.215v-2.086h12.809V17.621z"/>
	<path fill="#FFFFFF" d="M24.712,30.518c0-1.07,0.299-1.915,0.896-2.534s1.408-0.929,2.432-0.929c0.973,0,1.735,0.298,2.288,0.894
		s0.829,1.419,0.829,2.47c0,1.023-0.295,1.85-0.885,2.479s-1.381,0.943-2.373,0.943c-0.969,0-1.742-0.305-2.32-0.914
		S24.712,31.514,24.712,30.518z M25.884,30.482c0,0.746,0.188,1.334,0.565,1.764s0.884,0.645,1.521,0.645
		c0.656,0,1.156-0.21,1.5-0.63s0.516-1.022,0.516-1.808c0-0.789-0.172-1.395-0.516-1.816s-0.844-0.633-1.5-0.633
		c-0.645,0-1.153,0.221-1.526,0.662S25.884,29.713,25.884,30.482z"/>
	<path fill="#FFFFFF" d="M35.862,25.074c-0.215-0.113-0.447-0.17-0.697-0.17c-0.719,0-1.078,0.445-1.078,1.336v0.967h1.518v0.949
		h-1.518v5.531H32.95v-5.531h-1.107v-0.949h1.107v-1.02c0-0.695,0.2-1.241,0.601-1.638s0.909-0.595,1.526-0.595
		c0.328,0,0.59,0.037,0.785,0.111V25.074z"/>
	<path fill="#FFFFFF" d="M40.022,25.074c-0.215-0.113-0.447-0.17-0.697-0.17c-0.719,0-1.078,0.445-1.078,1.336v0.967h1.518v0.949
		h-1.518v5.531H37.11v-5.531h-1.107v-0.949h1.107v-1.02c0-0.695,0.2-1.241,0.601-1.638s0.909-0.595,1.526-0.595
		c0.328,0,0.59,0.037,0.785,0.111V25.074z"/>
</g>
</svg>
