<?xml version="1.0" encoding="utf-8"?>
<!-- Generator: Adobe Illustrator 22.1.0, SVG Export Plug-In . SVG Version: 6.00 Build 0)  -->
<svg version="1.1" id="图层_1" xmlns="http://www.w3.org/2000/svg" xmlns:xlink="http://www.w3.org/1999/xlink" x="0px" y="0px"
	 viewBox="0 0 50 50" style="enable-background:new 0 0 50 50;" xml:space="preserve">
<style type="text/css">
	.st0{fill:#178CEC;}
	.st1{enable-background:new    ;}
	.st2{fill:#FFFFFF;}
</style>
<g>
	<path class="st0" d="M46,40c0,2.8-2.2,5-5,5H11c-2.8,0-5-2.2-5-5V10c0-2.8,2.2-5,5-5h30c2.8,0,5,2.2,5,5V40z"/>
	<g class="st1">
		<path class="st2" d="M30.1,17.9l-7.5,9.6l-1.5,5.6h-2l1.5-5.5l-2.3-9.6h2.2l1.5,6.7c0,0,0,0.3,0.1,1h0c0.2-0.3,0.4-0.6,0.7-1
			l5.2-6.7L30.1,17.9L30.1,17.9z"/>
	</g>
	<g class="st1">
		<path class="st2" d="M28.9,28.4c0.4-1.6,1-2.8,1.9-3.7c0.8-0.9,1.8-1.3,2.8-1.3c2.1,0,2.7,1.6,1.8,4.9c-0.4,1.6-1,2.8-1.9,3.7
			c-0.8,0.9-1.7,1.3-2.8,1.3c-1,0-1.7-0.4-2-1.3C28.4,31.1,28.5,29.9,28.9,28.4z M30,28.6c-0.3,1.2-0.3,2.1-0.1,2.7
			c0.2,0.6,0.6,0.9,1.3,0.9c0.6,0,1.2-0.3,1.7-0.9c0.5-0.6,0.9-1.5,1.3-2.7H30z M34.3,27.7c0.5-2.3,0.2-3.4-1.1-3.4
			c-0.6,0-1.1,0.3-1.7,0.9c-0.5,0.6-1,1.4-1.3,2.5L34.3,27.7L34.3,27.7z"/>
	</g>
</g>
</svg>
