<?xml version="1.0" encoding="utf-8"?>
<!-- Generator: Adobe Illustrator 16.0.0, SVG Export Plug-In . SVG Version: 6.00 Build 0)  -->
<!DOCTYPE svg PUBLIC "-//W3C//DTD SVG 1.1//EN" "http://www.w3.org/Graphics/SVG/1.1/DTD/svg11.dtd">
<svg version="1.1" id="图层_1" xmlns="http://www.w3.org/2000/svg" xmlns:xlink="http://www.w3.org/1999/xlink" x="0px" y="0px"
	 width="50px" height="50px" viewBox="0 0 50 50" enable-background="new 0 0 50 50" xml:space="preserve">
<path fill="#178CEC" d="M46,40.042c0,2.763-2.238,5-5,5H10.999c-2.761,0-5-2.237-5-5v-30c0-2.761,2.239-5,5-5H41
	c2.762,0,5,2.239,5,5V40.042z"/>
<g enable-background="new    ">
	<path fill="#FFFFFF" d="M29.958,18.522L17.804,31.334h8.526l-0.463,1.729H14.48l0.178-0.664l12.072-12.724h-7.979l0.465-1.739
		h10.899L29.958,18.522z"/>
</g>
<g enable-background="new    ">
	<path fill="#FFFFFF" d="M28.878,28.357c0.429-1.602,1.049-2.836,1.859-3.702c0.811-0.868,1.755-1.301,2.833-1.301
		c2.059,0,2.654,1.617,1.788,4.851c-0.43,1.602-1.05,2.838-1.86,3.707c-0.812,0.869-1.732,1.303-2.764,1.303
		c-0.992,0-1.652-0.427-1.98-1.279C28.427,31.082,28.468,29.889,28.878,28.357z M29.966,28.65c-0.29,1.184-0.338,2.08-0.144,2.689
		c0.193,0.609,0.611,0.914,1.252,0.914c0.625,0,1.195-0.313,1.711-0.939c0.516-0.628,0.94-1.516,1.276-2.664H29.966z M34.299,27.742
		c0.535-2.289,0.172-3.433-1.09-3.433c-0.586,0-1.145,0.298-1.675,0.894c-0.531,0.596-0.971,1.442-1.319,2.54H34.299z"/>
</g>
</svg>
