<?xml version="1.0" encoding="utf-8"?>
<!-- Generator: Adobe Illustrator 22.1.0, SVG Export Plug-In . SVG Version: 6.00 Build 0)  -->
<svg version="1.1" id="图层_1" xmlns="http://www.w3.org/2000/svg" xmlns:xlink="http://www.w3.org/1999/xlink" x="0px" y="0px"
	 viewBox="0 0 50 50" style="enable-background:new 0 0 50 50;" xml:space="preserve">
<style type="text/css">
	.st0{fill:#B3DE7B;}
	.st1{fill:none;}
	.st2{fill:#999999;}
	.st3{fill:#FFFFFF;}
</style>
<g>
	<circle class="st0" cx="25" cy="25" r="20"/>
	<rect x="9.5" y="8.6" class="st1" width="31" height="32.7"/>
	<path class="st2" d="M39.2,28.7"/>
	<g>
		<path class="st3" d="M23.8,33.1c-1.1,0.6-2.5,0.9-4.2,0.9c-2.2,0-3.9-0.7-5.2-2.1s-1.9-3.2-1.9-5.5c0-2.4,0.7-4.4,2.2-5.9
			s3.3-2.2,5.6-2.2c1.4,0,2.6,0.2,3.6,0.6v2c-1.1-0.6-2.3-0.9-3.6-0.9c-1.7,0-3.1,0.6-4.1,1.7s-1.6,2.6-1.6,4.5
			c0,1.8,0.5,3.2,1.5,4.3s2.3,1.6,3.9,1.6c1.5,0,2.8-0.3,3.9-1V33.1z"/>
		<path class="st3" d="M37.9,33.7h-2.3l-2.5-4.2c-0.5-0.8-1-1.4-1.4-1.7c-0.4-0.3-0.9-0.5-1.5-0.5h-1.4v6.4h-2V18.6h4.6
			c1.5,0,2.6,0.4,3.5,1.1c0.8,0.7,1.3,1.7,1.3,3c0,2.1-1.1,3.5-3.4,4.1v0c0.4,0.2,0.8,0.4,1.1,0.8c0.3,0.3,0.7,0.9,1.2,1.7
			L37.9,33.7z M28.8,20.3v5.3h2.3c0.9,0,1.6-0.3,2.2-0.8s0.8-1.2,0.8-2.1c0-0.8-0.3-1.4-0.8-1.8s-1.2-0.7-2.2-0.7L28.8,20.3
			L28.8,20.3z"/>
	</g>
</g>
</svg>
