<?xml version="1.0" encoding="utf-8"?>
<!-- Generator: Adobe Illustrator 16.0.0, SVG Export Plug-In . SVG Version: 6.00 Build 0)  -->
<!DOCTYPE svg PUBLIC "-//W3C//DTD SVG 1.1//EN" "http://www.w3.org/Graphics/SVG/1.1/DTD/svg11.dtd">
<svg version="1.1" id="图层_1" xmlns="http://www.w3.org/2000/svg" xmlns:xlink="http://www.w3.org/1999/xlink" x="0px" y="0px"
	 width="50px" height="50px" viewBox="0 0 50 50" enable-background="new 0 0 50 50" xml:space="preserve">
<path fill="#178CEC" d="M45,40c0,2.763-2.238,5-5,5H10c-2.762,0-5-2.237-5-5V10c0-2.761,2.238-5,5-5h30c2.762,0,5,2.239,5,5V40z"/>
<g enable-background="new    ">
	<path fill="#FFFFFF" d="M18.459,30.553h-1.822l-4.317-9.264c-0.122-0.262-0.211-0.52-0.267-0.777h-0.047
		c-0.007,0.267-0.087,0.823-0.239,1.668l-1.511,8.373H8.734l2.149-11.909h1.93l4.185,9.104c0.199,0.43,0.314,0.704,0.344,0.822
		h0.031c0.009-0.338,0.088-0.918,0.236-1.737l1.478-8.188h1.522L18.459,30.553z"/>
	<path fill="#FFFFFF" d="M21.814,24.74c0.347-1.922,1.144-3.452,2.389-4.59c1.247-1.138,2.758-1.707,4.538-1.707
		c1.655,0,2.887,0.556,3.696,1.668c0.809,1.112,1.052,2.56,0.73,4.344c-0.349,1.933-1.143,3.465-2.383,4.598
		c-1.239,1.133-2.726,1.699-4.458,1.699c-1.691,0-2.947-0.557-3.765-1.669C21.741,27.973,21.493,26.524,21.814,24.74z
		 M23.452,24.617c-0.26,1.441-0.101,2.595,0.478,3.464s1.46,1.304,2.644,1.304c1.271,0,2.344-0.417,3.22-1.25
		s1.448-1.998,1.719-3.494c0.277-1.538,0.137-2.725-0.423-3.56c-0.559-0.835-1.456-1.253-2.691-1.253
		c-1.215,0-2.279,0.441-3.19,1.322C24.294,22.031,23.709,23.188,23.452,24.617z"/>
	<path fill="#FFFFFF" d="M42.704,20.012h-3.438l-1.902,10.541h-1.545l1.902-10.541h-3.421l0.247-1.369h8.403L42.704,20.012z"/>
</g>
</svg>
