<?xml version="1.0" encoding="utf-8"?>
<!-- Generator: Adobe Illustrator 16.0.0, SVG Export Plug-In . SVG Version: 6.00 Build 0)  -->
<!DOCTYPE svg PUBLIC "-//W3C//DTD SVG 1.1//EN" "http://www.w3.org/Graphics/SVG/1.1/DTD/svg11.dtd">
<svg version="1.1" id="图层_1" xmlns="http://www.w3.org/2000/svg" xmlns:xlink="http://www.w3.org/1999/xlink" x="0px" y="0px"
	 width="50px" height="50px" viewBox="0 0 50 50" enable-background="new 0 0 50 50" xml:space="preserve">
<path fill="#178CEC" d="M45,40c0,2.763-2.238,5-5,5H10c-2.762,0-5-2.237-5-5V10c0-2.761,2.238-5,5-5h30c2.762,0,5,2.239,5,5V40z"/>
<g enable-background="new    ">
	<path fill="#FFFFFF" d="M27.919,17.931L17.062,30.539h8.39l-0.308,1.701H13.938l0.118-0.653l10.784-12.522h-7.852l0.309-1.71
		h10.726L27.919,17.931z"/>
	<path fill="#FFFFFF" d="M36.494,25.393h-1.729l-0.837,4.636c-0.132,0.73,0.06,1.096,0.574,1.096c0.183,0,0.422-0.052,0.719-0.152
		l-0.214,1.183c-0.358,0.125-0.701,0.188-1.027,0.188c-1.259,0-1.756-0.737-1.489-2.214l0.854-4.735h-2.906l-0.837,4.643
		c-0.183,1.009-0.401,1.744-0.657,2.205h-1.428c0.279-0.48,0.51-1.221,0.689-2.22l0.836-4.628c-0.638,0.015-1.312,0.245-2.021,0.692
		l0.228-1.262c0.466-0.369,1.136-0.555,2.01-0.555h7.438L36.494,25.393z"/>
</g>
</svg>
